<?xml version="1.0" standalone="no"?>
<!DOCTYPE svg PUBLIC "-//W3C//DTD SVG 20010904//EN"
 "http://www.w3.org/TR/2001/REC-SVG-20010904/DTD/svg10.dtd">
<svg version="1.0" xmlns="http://www.w3.org/2000/svg"
 width="463.000000pt" height="425.000000pt" viewBox="0 0 463.000000 425.000000"
 preserveAspectRatio="xMidYMid meet">
<metadata>
Created by potrace 1.16, written by Peter Selinger 2001-2019
</metadata>
<g transform="translate(0.000000,425.000000) scale(0.100000,-0.100000)"
fill="#000000" stroke="none">
<path d="M3295 3716 c-124 -28 -244 -90 -337 -174 -40 -36 -183 -198 -246
-279 -76 -97 -172 -323 -159 -373 3 -11 1 -18 -4 -14 -15 9 -10 -83 5 -96 12
-9 26 -6 68 15 97 49 184 124 378 325 174 181 199 203 267 237 63 31 87 37
158 41 331 17 552 -308 410 -604 -34 -70 -59 -99 -285 -330 -266 -271 -314
-327 -635 -743 -115 -150 -218 -283 -229 -296 -23 -29 -15 -55 19 -55 46 0
185 61 274 120 125 85 254 203 647 595 357 356 435 446 498 570 57 113 71 180
71 340 -1 131 -3 146 -32 228 -43 121 -85 189 -178 282 -92 93 -184 152 -300
191 -66 22 -102 27 -205 30 -82 2 -146 -1 -185 -10z"/>
<path d="M895 1769 c-62 -51 -268 -251 -351 -342 -217 -235 -284 -539 -180
-817 73 -197 230 -357 424 -436 172 -69 418 -71 568 -5 25 12 50 18 55 15 5
-3 9 1 9 10 0 17 166 591 176 609 4 7 -59 -53 -139 -133 -101 -100 -164 -154
-201 -173 -157 -80 -347 -49 -485 79 -107 99 -159 247 -131 378 27 129 55 165
397 508 228 228 314 320 310 332 -6 14 -32 16 -204 16 l-198 0 -50 -41z"/>
</g>
</svg>
